<?xml version="1.0" encoding="UTF-8"?>
<svg id="Layer_1" data-name="Layer 1" xmlns="http://www.w3.org/2000/svg" xmlns:xlink="http://www.w3.org/1999/xlink" viewBox="0 0 223.435 55.859">
  <defs>
    <style>
      .cls-1 {
        fill: #fff;
      }

      .cls-2 {
        fill: none;
        opacity: .58;
        stroke: url(#linear-gradient);
        stroke-miterlimit: 10;
        stroke-width: .75px;
      }

      .cls-3 {
        fill: #333;
      }

      .cls-4 {
        opacity: .79;
      }
    </style>
    <linearGradient id="linear-gradient" x1="239.929" y1="34.128" x2="63.176" y2="34.128" gradientUnits="userSpaceOnUse">
      <stop offset="0" stop-color="#7dffff"/>
      <stop offset="1" stop-color="#000"/>
    </linearGradient>
  </defs>
  <g>
    <path d="M65.59,12.668h-5.451v-1.16h12.2v1.16h-5.474v15.076h-1.275V12.668Z"/>
    <path d="M79.902,25.541c0,1.021,.093,1.832,.163,2.203h-1.113c-.093-.278-.163-.789-.208-1.786-.395,.858-1.415,2.064-3.804,2.064-2.69,0-3.851-1.739-3.851-3.479,0-2.551,1.972-3.711,5.451-3.711h2.204v-1.183c0-1.159-.348-2.713-2.992-2.713-2.343,0-2.69,1.229-2.945,2.18h-1.16c.14-1.275,.928-3.247,4.129-3.247,2.644,0,4.128,1.113,4.128,3.665v6.007Zm-1.136-3.711h-2.273c-2.574,0-4.175,.672-4.175,2.667,0,1.461,1.044,2.458,2.667,2.458,3.317,0,3.781-2.203,3.781-4.708v-.417Z"/>
    <path d="M83.314,16.147c2.342,6.633,3.363,9.37,3.757,10.622h.023c.464-1.414,1.392-4.104,3.642-10.622h1.206l-4.36,12.27c-1.229,3.433-2.064,4.198-4.152,4.198-.417,0-.696-.023-1.067-.07v-1.159c.348,.046,.673,.069,1.044,.069,1.67,0,2.203-.812,3.062-3.201l-4.43-12.106h1.276Z"/>
    <path d="M94.356,27.744V10.65h1.16V27.744h-1.16Z"/>
    <path d="M99.576,22.085c.023,2.992,1.53,4.848,3.757,4.848,2.181,0,2.923-1.229,3.34-2.181h1.183c-.486,1.531-1.716,3.271-4.568,3.271-3.525,0-4.894-3.038-4.894-5.984,0-3.317,1.647-6.169,5.033-6.169,3.572,0,4.709,3.085,4.709,5.265,0,.325,0,.649-.023,.951h-8.535Zm7.352-1.021c-.022-2.296-1.275-4.105-3.548-4.105-2.389,0-3.479,1.67-3.734,4.105h7.282Z"/>
    <path d="M110.967,19.302c0-1.948-.023-2.783-.023-3.154h1.137c.022,.371,.046,1.113,.046,2.598,.673-1.739,2.157-2.783,4.036-2.876v1.252c-2.412,.163-4.036,1.833-4.036,4.592v6.03h-1.159v-8.442Z"/>
    <path d="M124.885,11.509h5.66c3.107,0,4.777,1.646,4.777,3.989,0,1.925-1.16,3.178-2.505,3.549,1.159,.324,3.085,1.461,3.085,4.012,0,3.248-2.436,4.685-5.266,4.685h-5.752V11.509Zm5.242,6.981c2.807,0,3.873-1.044,3.873-2.923,0-1.6-1.113-2.899-3.386-2.899h-4.5v5.822h4.013Zm-4.013,8.094h4.569c2.134,0,3.92-1.066,3.92-3.455,0-2.064-1.322-3.479-4.593-3.479h-3.896v6.935Z"/>
    <path d="M138.967,19.302c0-1.948-.022-2.783-.022-3.154h1.136c.023,.371,.047,1.113,.047,2.598,.673-1.739,2.157-2.783,4.035-2.876v1.252c-2.412,.163-4.035,1.833-4.035,4.592v6.03h-1.16v-8.442Z"/>
    <path d="M154.903,24.358c0,1.136,.023,2.946,.023,3.386h-1.113c-.047-.302-.069-1.066-.069-2.018-.487,1.368-1.67,2.296-3.734,2.296-1.67,0-3.804-.649-3.804-4.198v-7.677h1.136v7.398c0,1.693,.534,3.34,2.83,3.34,2.598,0,3.572-1.461,3.572-4.777v-5.961h1.159v8.21Z"/>
    <path d="M158.709,10.65h1.16v2.25h-1.16v-2.25Zm0,5.497h1.16v11.597h-1.16v-11.597Z"/>
    <path d="M163.674,19.07c0-1.021,0-1.995-.023-2.922h1.137c.046,.371,.069,1.879,.046,2.203,.511-1.183,1.461-2.481,3.851-2.481,2.063,0,3.896,1.16,3.896,4.36v7.515h-1.16v-7.329c0-2.064-.858-3.409-2.876-3.409-2.76,0-3.711,2.296-3.711,4.824v5.914h-1.159v-8.674Z"/>
  </g>
  <line class="cls-2" x1="63.176" y1="34.128" x2="239.929" y2="34.128"/>
  <g>
    <path d="M124.292,37.865h4.75c2.432,0,4.104,1.349,4.104,3.704,0,2.394-1.653,3.8-4.236,3.8h-3.572v5.794h-1.045v-13.298Zm1.045,6.554h3.667c2.146,0,3.039-1.14,3.039-2.812,0-1.786-1.178-2.793-2.963-2.793h-3.743v5.604Z"/>
    <path d="M142.816,46.395c0,2.641-1.463,4.996-4.294,4.996-2.564,0-4.16-2.108-4.16-4.977,0-2.717,1.501-4.978,4.256-4.978,2.526,0,4.198,1.976,4.198,4.958Zm-7.447,.02c0,2.261,1.216,4.084,3.229,4.084,2.052,0,3.211-1.69,3.211-4.084,0-2.242-1.141-4.085-3.249-4.085-2.165,0-3.191,1.805-3.191,4.085Z"/>
    <path d="M145.173,44.248c0-1.596-.019-2.279-.019-2.584h.931c.019,.305,.038,.912,.038,2.128,.551-1.425,1.767-2.279,3.306-2.355v1.025c-1.976,.134-3.306,1.501-3.306,3.762v4.939h-.95v-6.915Z"/>
    <path d="M150.493,41.664h1.767v-2.963h.95v2.963h2.261v.894h-2.261v6.174c0,1.063,.228,1.672,1.14,1.672,.285,0,.684-.02,.988-.114v.836c-.323,.133-.779,.171-1.178,.171-1.216,0-1.9-.607-1.9-2.128v-6.61h-1.767v-.894Z"/>
    <path d="M157.656,51.163v-8.605h-1.634v-.894h1.634v-1.349c0-1.596,.456-3.343,2.584-3.343,.284,0,.702,.057,.931,.133v.911c-.285-.075-.741-.113-1.026-.113-1.12,0-1.538,.798-1.538,2.45v1.311h2.07v.894h-2.07v8.605h-.95Z"/>
    <path d="M169.872,46.395c0,2.641-1.463,4.996-4.294,4.996-2.564,0-4.16-2.108-4.16-4.977,0-2.717,1.501-4.978,4.256-4.978,2.526,0,4.198,1.976,4.198,4.958Zm-7.447,.02c0,2.261,1.216,4.084,3.229,4.084,2.052,0,3.211-1.69,3.211-4.084,0-2.242-1.141-4.085-3.249-4.085-2.165,0-3.191,1.805-3.191,4.085Z"/>
    <path d="M172.229,51.163v-14.001h.95v14.001h-.95Z"/>
    <path d="M176.294,37.162h.95v1.843h-.95v-1.843Zm0,4.502h.95v9.499h-.95v-9.499Z"/>
    <path d="M188.054,46.395c0,2.641-1.463,4.996-4.294,4.996-2.564,0-4.16-2.108-4.16-4.977,0-2.717,1.501-4.978,4.256-4.978,2.526,0,4.198,1.976,4.198,4.958Zm-7.447,.02c0,2.261,1.216,4.084,3.229,4.084,2.052,0,3.211-1.69,3.211-4.084,0-2.242-1.141-4.085-3.249-4.085-2.165,0-3.191,1.805-3.191,4.085Z"/>
  </g>
  <g>
    <polygon class="cls-1" points="4.401 41.355 4.401 14.645 27.534 1.289 50.667 14.645 50.667 41.355 27.534 54.711 4.401 41.355"/>
    <path class="cls-3" d="M27.534,1.577l22.883,13.211v26.423s-22.883,13.211-22.883,13.211L4.651,41.211V14.789S27.534,1.577,27.534,1.577m0-.577L4.151,14.5v27s23.383,13.5,23.383,13.5l23.383-13.5V14.5S27.534,1,27.534,1h0Z"/>
  </g>
  <g class="cls-4">
    <path d="M34.96,14.825h-4.852c-.209,0-.378,.169-.378,.378v26.122c0,2.079,.254,3.481,.764,4.206,.467,.665,1.337,1.025,2.611,1.081,.201,.009,.357,.177,.357,.378v.251c0,.209-.169,.378-.378,.378h-11.438c-.209,0-.378-.169-.378-.378v-.251c0-.204,.161-.368,.365-.378,1.318-.063,2.227-.477,2.727-1.241,.545-.833,.817-2.24,.817-4.221V15.203c0-.209-.169-.378-.378-.378h-4.617c-2.39,0-4.129,.382-5.216,1.146-1.017,.715-1.618,1.866-1.804,3.455-.022,.191-.183,.336-.375,.336h-.307c-.209,0-.378-.169-.378-.378v-7.148c0-.209,.169-.378,.378-.378h.514c.088,0,.171,.034,.238,.091,.943,.802,2.633,1.202,5.07,1.202h18.072c2.521,0,4.309-.403,5.363-1.211,.068-.052,.15-.082,.235-.082h.577c.209,0,.378,.169,.378,.378v7.148c0,.209-.169,.378-.378,.378h0c-.172,0-.324-.117-.366-.284-.442-1.746-1.188-2.949-2.239-3.61-1.107-.695-2.767-1.043-4.981-1.043Z"/>
  </g>
</svg>