<?xml version="1.0" encoding="UTF-8"?>
<svg id="Layer_1" data-name="Layer 1" xmlns="http://www.w3.org/2000/svg" xmlns:xlink="http://www.w3.org/1999/xlink" viewBox="0 0 264.264 63">
  <defs>
    <style>
      .cls-1 {
        fill: #fff;
      }

      .cls-2 {
        fill: none;
        opacity: .58;
        stroke: url(#linear-gradient);
        stroke-miterlimit: 10;
        stroke-width: .75px;
      }

      .cls-3 {
        fill: #333;
      }

      .cls-4 {
        opacity: .79;
      }
    </style>
    <linearGradient id="linear-gradient" x1="235.778" y1="33.128" x2="59.025" y2="33.128" gradientUnits="userSpaceOnUse">
      <stop offset="0" stop-color="#7dffff"/>
      <stop offset="1" stop-color="#000"/>
    </linearGradient>
  </defs>
  <g>
    <path class="cls-1" d="m60.949,13.425h-4.858v-2.834h13.159v2.834h-4.84v13.156h-3.46v-13.156Z"/>
    <path class="cls-1" d="m78.991,23.479c0,1.143.093,2.812.163,3.102h-3.176c-.093-.237-.162-.87-.168-1.174-.435.675-1.251,1.452-3.375,1.452-2.895,0-4.116-1.903-4.116-3.765,0-2.735,2.196-3.997,5.716-3.997h1.713v-.733c0-.854-.307-1.693-1.849-1.693-1.403,0-1.71.596-1.863,1.465h-3.161c.18-2.133,1.5-3.859,5.149-3.839,3.215.021,4.965,1.276,4.965,4.134v5.048Zm-3.239-2.364h-1.354c-2.002,0-2.746.612-2.746,1.769,0,.869.534,1.601,1.728,1.601,2.112,0,2.372-1.468,2.372-3.055v-.315Z"/>
    <path class="cls-1" d="m84.006,14.576c1.24,4.142,2.322,7.839,2.512,8.948h.023c.26-1.211.963-3.901,2.396-8.948h3.309l-4.034,12.351c-1.147,3.453-2.105,4.484-4.989,4.484-.295,0-.981-.023-1.557-.09v-2.671c.225.025.591.049.86.049,1.221,0,1.836-.424,2.286-1.751l-4.369-12.372h3.562Z"/>
    <path class="cls-1" d="m93.88,26.581V9.651h3.324v16.93h-3.324Z"/>
    <path class="cls-1" d="m102.833,21.29c.003,1.501.755,2.969,2.409,2.969,1.384,0,1.779-.555,2.095-1.282h3.327c-.426,1.47-1.737,3.883-5.509,3.883-3.954,0-5.67-2.957-5.67-6.106,0-3.766,1.933-6.455,5.789-6.455,4.123,0,5.524,2.982,5.524,5.979,0,.406,0,.67-.043,1.012h-7.923Zm4.637-2.042c-.023-1.398-.582-2.574-2.201-2.574-1.593,0-2.233,1.098-2.366,2.574h4.567Z"/>
    <path class="cls-1" d="m113.133,17.833c0-1.193-.003-2.252-.022-3.256h3.26c.043.269.087,1.46.087,2.107.529-1.372,1.81-2.375,3.852-2.386v3.171c-2.412-.062-3.852.587-3.852,3.878v5.234h-3.324v-8.749Z"/>
    <path class="cls-1" d="m128.3,10.591h6.986c3.863,0,5.329,2.014,5.329,4.091,0,1.802-.955,2.973-2.035,3.467,1.078.406,2.492,1.543,2.492,3.645,0,2.737-2.149,4.787-5.55,4.787h-7.223v-15.99Zm6.59,6.307c1.643,0,2.321-.737,2.321-1.86,0-1.172-.889-1.776-2.223-1.776h-3.295v3.637h3.196Zm-3.196,7.013h3.119c1.869,0,2.716-.781,2.716-2.231,0-1.288-.832-2.111-2.734-2.111h-3.101v4.342Z"/>
    <path class="cls-1" d="m143.385,17.833c0-1.193-.003-2.252-.022-3.256h3.26c.043.269.087,1.46.087,2.107.529-1.372,1.81-2.375,3.852-2.386v3.171c-2.412-.062-3.852.587-3.852,3.878v5.234h-3.324v-8.749Z"/>
    <path class="cls-1" d="m163.077,23.093c0,1.157.003,2.415.023,3.488h-3.257c-.047-.322-.07-.965-.09-1.385-.712,1.205-1.772,1.663-3.306,1.663-2.446,0-4.008-1.486-4.008-4.463v-7.82h3.321v7.153c0,1.326.41,2.421,1.85,2.421,1.515,0,2.143-.808,2.143-3.186v-6.389h3.323v8.517Z"/>
    <path class="cls-1" d="m166.075,9.651h3.324v2.964h-3.324v-2.964Zm0,4.925h3.324v12.005h-3.324v-12.005Z"/>
    <path class="cls-1" d="m172.405,17.601c0-1.021,0-2.138-.022-3.024h3.219c.066.31.11,1.144.128,1.529.408-.754,1.38-1.808,3.482-1.808,2.411,0,3.979,1.629,3.979,4.646v7.637h-3.324v-7.268c0-1.349-.45-2.327-1.916-2.327-1.413,0-2.221.785-2.221,2.905v6.69h-3.324v-8.98Z"/>
  </g>
  <line class="cls-2" x1="59.025" y1="33.128" x2="235.778" y2="33.128"/>
  <g>
    <path class="cls-1" d="m120.141,36.865h4.75c2.432,0,4.104,1.349,4.104,3.704,0,2.394-1.653,3.8-4.236,3.8h-3.572v5.794h-1.045v-13.298Zm1.045,6.554h3.667c2.146,0,3.039-1.14,3.039-2.812,0-1.786-1.178-2.793-2.963-2.793h-3.743v5.604Z"/>
    <path class="cls-1" d="m138.665,45.395c0,2.641-1.463,4.996-4.294,4.996-2.564,0-4.16-2.108-4.16-4.977,0-2.717,1.501-4.978,4.256-4.978,2.526,0,4.198,1.976,4.198,4.958Zm-7.447.02c0,2.261,1.216,4.084,3.229,4.084,2.052,0,3.211-1.69,3.211-4.084,0-2.242-1.141-4.085-3.249-4.085-2.165,0-3.191,1.805-3.191,4.085Z"/>
    <path class="cls-1" d="m141.022,43.248c0-1.596-.019-2.279-.019-2.584h.931c.019.305.038.912.038,2.128.551-1.425,1.767-2.279,3.306-2.355v1.025c-1.976.134-3.306,1.501-3.306,3.762v4.939h-.95v-6.915Z"/>
    <path class="cls-1" d="m146.342,40.664h1.767v-2.963h.95v2.963h2.261v.894h-2.261v6.174c0,1.063.228,1.672,1.14,1.672.285,0,.684-.02.988-.114v.836c-.323.133-.779.171-1.178.171-1.216,0-1.9-.607-1.9-2.128v-6.61h-1.767v-.894Z"/>
    <path class="cls-1" d="m153.505,50.163v-8.605h-1.634v-.894h1.634v-1.349c0-1.596.456-3.343,2.584-3.343.284,0,.702.057.931.133v.911c-.285-.075-.741-.113-1.026-.113-1.12,0-1.538.798-1.538,2.45v1.311h2.07v.894h-2.07v8.605h-.95Z"/>
    <path class="cls-1" d="m165.721,45.395c0,2.641-1.463,4.996-4.294,4.996-2.564,0-4.16-2.108-4.16-4.977,0-2.717,1.501-4.978,4.256-4.978,2.526,0,4.198,1.976,4.198,4.958Zm-7.447.02c0,2.261,1.216,4.084,3.229,4.084,2.052,0,3.211-1.69,3.211-4.084,0-2.242-1.141-4.085-3.249-4.085-2.165,0-3.191,1.805-3.191,4.085Z"/>
    <path class="cls-1" d="m168.077,50.163v-14.001h.95v14.001h-.95Z"/>
    <path class="cls-1" d="m172.143,36.162h.95v1.843h-.95v-1.843Zm0,4.502h.95v9.499h-.95v-9.499Z"/>
    <path class="cls-1" d="m183.903,45.395c0,2.641-1.463,4.996-4.294,4.996-2.564,0-4.16-2.108-4.16-4.977,0-2.717,1.501-4.978,4.256-4.978,2.526,0,4.198,1.976,4.198,4.958Zm-7.447.02c0,2.261,1.216,4.084,3.229,4.084,2.052,0,3.211-1.69,3.211-4.084,0-2.242-1.141-4.085-3.249-4.085-2.165,0-3.191,1.805-3.191,4.085Z"/>
  </g>
  <g>
    <polygon class="cls-1" points=".25 40.355 .25 13.645 23.383 .289 46.515 13.645 46.515 40.355 23.383 53.711 .25 40.355"/>
    <path class="cls-3" d="m23.383.577l22.883,13.211v26.423s-22.883,13.211-22.883,13.211L.5,40.211V13.789S23.383.577,23.383.577m0-.577L0,13.5v27s23.383,13.5,23.383,13.5l23.383-13.5V13.5S23.383,0,23.383,0h0Z"/>
  </g>
  <g class="cls-4">
    <path d="m30.809,13.825h-4.852c-.209,0-.378.169-.378.378v26.122c0,2.079.254,3.481.764,4.206.467.665,1.337,1.025,2.611,1.081.201.009.357.177.357.378v.251c0,.209-.169.378-.378.378h-11.438c-.209,0-.378-.169-.378-.378v-.251c0-.204.161-.368.365-.378,1.318-.063,2.227-.477,2.727-1.241.545-.833.817-2.24.817-4.221V14.203c0-.209-.169-.378-.378-.378h-4.617c-2.39,0-4.129.382-5.216,1.146-1.017.715-1.618,1.866-1.804,3.455-.022.191-.183.336-.375.336h-.307c-.209,0-.378-.169-.378-.378v-7.148c0-.209.169-.378.378-.378h.514c.088,0,.171.034.238.091.943.802,2.633,1.202,5.07,1.202h18.072c2.521,0,4.309-.403,5.363-1.211.068-.052.15-.082.235-.082h.577c.209,0,.378.169.378.378v7.148c0,.209-.169.378-.378.378h0c-.172,0-.324-.117-.366-.284-.442-1.746-1.188-2.949-2.239-3.61-1.107-.695-2.767-1.043-4.981-1.043Z"/>
  </g>
</svg>