<?xml version="1.0" encoding="UTF-8"?><svg id="Layer_1" xmlns="http://www.w3.org/2000/svg" viewBox="0 0 519.86 600.29"><defs><style>.cls-1{fill:#fff;}</style></defs><g><polygon class="cls-1" points="2.5 448.77 2.5 151.52 259.93 2.89 517.36 151.51 517.36 448.77 259.93 597.4 2.5 448.77"/><path d="M259.93,5.77l254.93,147.18V447.33s-254.93,147.18-254.93,147.18L5,447.33V152.96S259.93,5.77,259.93,5.77m0-5.77L0,150.07V450.21s259.93,150.07,259.93,150.07l259.93-150.07V150.07S259.93,0,259.93,0h0Z"/></g><path d="M342.49,153.68h-53.94c-2.32,0-4.2,1.88-4.2,4.2V448.27c0,23.11,2.82,38.69,8.49,46.76,5.19,7.39,14.86,11.4,29.02,12.01,2.23,.1,3.97,1.97,3.97,4.2v2.79c0,2.32-1.88,4.2-4.2,4.2h-127.15c-2.32,0-4.2-1.88-4.2-4.2v-2.79c0-2.26,1.79-4.09,4.06-4.2,14.65-.7,24.76-5.3,30.31-13.8,6.05-9.26,9.08-24.9,9.08-46.92V157.88c0-2.32-1.88-4.2-4.2-4.2h-51.33c-26.57,0-45.89,4.25-57.98,12.74-11.3,7.94-17.99,20.75-20.05,38.41-.25,2.12-2.03,3.73-4.17,3.73h-3.42c-2.32,0-4.2-1.88-4.2-4.2V124.89c0-2.32,1.88-4.2,4.2-4.2h5.71c.98,0,1.9,.38,2.65,1.01,10.48,8.91,29.27,13.36,56.36,13.36h200.89c28.03,0,47.9-4.48,59.62-13.46,.75-.58,1.66-.91,2.61-.91h6.41c2.32,0,4.2,1.88,4.2,4.2v79.46c0,2.32-1.88,4.2-4.2,4.2h0c-1.92,0-3.6-1.3-4.07-3.15-4.91-19.41-13.2-32.79-24.89-40.13-12.3-7.73-30.76-11.6-55.37-11.6Z"/></svg>